<svg width="400" height="300" viewBox="0 0 400 300" xmlns="http://www.w3.org/2000/svg">
  <rect width="400" height="300" fill="#0d1117" rx="6"/>

  <!-- Header -->
  <text x="200" y="25" text-anchor="middle" font-family="monospace" font-size="16" font-weight="bold" fill="#c9d1d9">
    Stack Tecnológico Empresarial
  </text>

  <!-- Programming Languages Section -->
  <text x="20" y="50" font-family="monospace" font-size="14" font-weight="bold" fill="#70a5fd">
    💻 Lenguajes de Programación
  </text>

  <!-- JavaScript 45% -->
  <circle cx="30" cy="70" r="4" fill="#f1e05a"/>
  <text x="45" y="75" font-family="monospace" font-size="12" fill="#c9d1d9">JavaScript</text>
  <text x="360" y="75" font-family="monospace" font-size="12" fill="#c9d1d9">45%</text>
  <rect x="30" y="80" width="320" height="8" fill="#21262d" rx="4"/>
  <rect x="30" y="80" width="144" height="8" fill="#f1e05a" rx="4"/>

  <!-- PHP 20% -->
  <circle cx="30" cy="95" r="4" fill="#4F5D95"/>
  <text x="45" y="100" font-family="monospace" font-size="12" fill="#c9d1d9">PHP</text>
  <text x="360" y="100" font-family="monospace" font-size="12" fill="#c9d1d9">20%</text>
  <rect x="30" y="105" width="320" height="8" fill="#21262d" rx="4"/>
  <rect x="30" y="105" width="64" height="8" fill="#4F5D95" rx="4"/>

  <!-- Flutter/Dart 19% -->
  <circle cx="30" cy="120" r="4" fill="#00B4AB"/>
  <text x="45" y="125" font-family="monospace" font-size="12" fill="#c9d1d9">Flutter/Dart</text>
  <text x="360" y="125" font-family="monospace" font-size="12" fill="#c9d1d9">19%</text>
  <rect x="30" y="130" width="320" height="8" fill="#21262d" rx="4"/>
  <rect x="30" y="130" width="61" height="8" fill="#00B4AB" rx="4"/>

  <!-- TypeScript 10% -->
  <circle cx="30" cy="145" r="4" fill="#3178c6"/>
  <text x="45" y="150" font-family="monospace" font-size="12" fill="#c9d1d9">TypeScript</text>
  <text x="360" y="150" font-family="monospace" font-size="12" fill="#c9d1d9">10%</text>
  <rect x="30" y="155" width="320" height="8" fill="#21262d" rx="4"/>
  <rect x="30" y="155" width="32" height="8" fill="#3178c6" rx="4"/>

  <!-- Java 5% -->
  <circle cx="30" cy="170" r="4" fill="#b07219"/>
  <text x="45" y="175" font-family="monospace" font-size="12" fill="#c9d1d9">Java</text>
  <text x="360" y="175" font-family="monospace" font-size="12" fill="#c9d1d9">5%</text>
  <rect x="30" y="180" width="320" height="8" fill="#21262d" rx="4"/>
  <rect x="30" y="180" width="16" height="8" fill="#b07219" rx="4"/>

  <!-- Swift/Kotlin 1% -->
  <circle cx="30" cy="195" r="4" fill="#FA7343"/>
  <text x="45" y="200" font-family="monospace" font-size="12" fill="#c9d1d9">Swift/Kotlin</text>
  <text x="360" y="200" font-family="monospace" font-size="12" fill="#c9d1d9">1%</text>
  <rect x="30" y="205" width="320" height="8" fill="#21262d" rx="4"/>
  <rect x="30" y="205" width="3" height="8" fill="#FA7343" rx="4"/>

  <!-- DevOps Section -->
  <text x="20" y="235" font-family="monospace" font-size="14" font-weight="bold" fill="#70a5fd">
    🚀 DevOps y Infraestructura
  </text>

  <text x="20" y="255" font-family="monospace" font-size="11" fill="#8b949e">
    Docker • Kubernetes • Jenkins • CI/CD • RabbitMQ • Redis
  </text>

  <!-- Footer -->
  <text x="200" y="285" text-anchor="middle" font-family="monospace" font-size="10" fill="#8b949e">
    📊 Basado en 8,353 commits • 2019-Actualmente • git.sigis.com.ve
  </text>
</svg>