<svg width="420" height="340" xmlns="http://www.w3.org/2000/svg">
  <style>
    .header { font: 600 16px 'Segoe UI', Ubuntu, Sans-Serif; fill: #70a5fd; }
    .subheader { font: 600 13px 'Segoe UI', Ubuntu, Sans-Serif; fill: #8b949e; }
    .lang-name { font: 400 11px 'Segoe UI', Ubuntu, Sans-Serif; fill: #c9d1d9; }
    .lang-percent { font: 600 11px 'Segoe UI', Ubuntu, Sans-Serif; fill: #c9d1d9; }
    .small-text { font: 400 9px 'Segoe UI', Ubuntu, Sans-Serif; fill: #8b949e; }
  </style>

  <rect rx="5" x="0" y="0" width="420" height="340" fill="#1a1b27" stroke="#70a5fd" stroke-width="1"/>

  <text x="25" y="25" class="header">Stack Tecnológico Empresarial</text>

  <!-- Programming Languages Section -->
  <text x="25" y="45" class="subheader">💻 Lenguajes de Programación</text>

  <!-- JavaScript 45% -->
  <circle cx="25" cy="60" r="3" fill="#f1e05a"/>
  <text x="35" y="64" class="lang-name">JavaScript</text>
  <text x="380" y="64" class="lang-percent">45%</text>
  <rect x="25" y="68" width="340" height="6" fill="#21262d" rx="3"/>
  <rect x="25" y="68" width="153" height="6" fill="#f1e05a" rx="3"/>

  <!-- PHP 20% -->
  <circle cx="25" cy="82" r="3" fill="#4F5D95"/>
  <text x="35" y="86" class="lang-name">PHP</text>
  <text x="380" y="86" class="lang-percent">20%</text>
  <rect x="25" y="90" width="340" height="6" fill="#21262d" rx="3"/>
  <rect x="25" y="90" width="68" height="6" fill="#4F5D95" rx="3"/>

  <!-- Flutter/Dart 15% -->
  <circle cx="25" cy="104" r="3" fill="#00B4AB"/>
  <text x="35" y="108" class="lang-name">Flutter/Dart</text>
  <text x="380" y="108" class="lang-percent">15%</text>
  <rect x="25" y="112" width="340" height="6" fill="#21262d" rx="3"/>
  <rect x="25" y="112" width="51" height="6" fill="#00B4AB" rx="3"/>

  <!-- TypeScript 8% -->
  <circle cx="25" cy="126" r="3" fill="#3178c6"/>
  <text x="35" y="130" class="lang-name">TypeScript</text>
  <text x="380" y="130" class="lang-percent">8%</text>
  <rect x="25" y="134" width="340" height="6" fill="#21262d" rx="3"/>
  <rect x="25" y="134" width="27" height="6" fill="#3178c6" rx="3"/>

  <!-- Java 8% -->
  <circle cx="25" cy="148" r="3" fill="#b07219"/>
  <text x="35" y="152" class="lang-name">Java</text>
  <text x="380" y="152" class="lang-percent">8%</text>
  <rect x="25" y="156" width="340" height="6" fill="#21262d" rx="3"/>
  <rect x="25" y="156" width="27" height="6" fill="#b07219" rx="3"/>

  <!-- Swift & Kotlin 4% -->
  <circle cx="25" cy="170" r="3" fill="#FA7343"/>
  <text x="35" y="174" class="lang-name">Swift</text>
  <circle cx="80" cy="170" r="3" fill="#7F52FF"/>
  <text x="90" y="174" class="lang-name">Kotlin</text>
  <text x="380" y="174" class="lang-percent">4%</text>
  <rect x="25" y="178" width="340" height="6" fill="#21262d" rx="3"/>
  <rect x="25" y="178" width="14" height="6" fill="#FA7343" rx="3"/>

  <!-- DevOps Section -->
  <text x="25" y="205" class="subheader">🚀 DevOps & Infraestructura</text>

  <!-- Containerization -->
  <circle cx="25" cy="220" r="3" fill="#2496ED"/>
  <text x="35" y="224" class="lang-name">Containerization (Docker, Compose, K8s)</text>
  <text x="380" y="224" class="lang-percent">35%</text>
  <rect x="25" y="228" width="340" height="6" fill="#21262d" rx="3"/>
  <rect x="25" y="228" width="119" height="6" fill="#2496ED" rx="3"/>

  <!-- CI/CD Pipelines -->
  <circle cx="25" cy="242" r="3" fill="#D24939"/>
  <text x="35" y="246" class="lang-name">CI/CD Pipelines (Jenkins, GitLab CI)</text>
  <text x="380" y="246" class="lang-percent">30%</text>
  <rect x="25" y="250" width="340" height="6" fill="#21262d" rx="3"/>
  <rect x="25" y="250" width="102" height="6" fill="#D24939" rx="3"/>

  <!-- Shell Scripting -->
  <circle cx="25" cy="264" r="3" fill="#89e051"/>
  <text x="35" y="268" class="lang-name">Shell Scripting (Bash, PowerShell)</text>
  <text x="380" y="268" class="lang-percent">20%</text>
  <rect x="25" y="272" width="340" height="6" fill="#21262d" rx="3"/>
  <rect x="25" y="272" width="68" height="6" fill="#89e051" rx="3"/>

  <!-- Configuration -->
  <circle cx="25" cy="286" r="3" fill="#cb171e"/>
  <text x="35" y="290" class="lang-name">IaC & Config (YAML, Terraform, Ansible)</text>
  <text x="380" y="290" class="lang-percent">15%</text>
  <rect x="25" y="294" width="340" height="6" fill="#21262d" rx="3"/>
  <rect x="25" y="294" width="51" height="6" fill="#cb171e" rx="3"/>

  <!-- Footer -->
  <text x="25" y="320" class="small-text">📊 Basado en 8,353 commits • 2019-Actualmente • git.sigis.com.ve</text>

</svg>